<?xml version="1.0" encoding="UTF-8"?>
<svg version="1.1" viewBox="0 0 844 884" width="211" height="221" xmlns="http://www.w3.org/2000/svg">
<path transform="translate(0)" d="m0 0h844v884h-844z" fill="#FBFBFB"/>
<path transform="translate(665,374)" d="m0 0 3 1 12 19 11 17 13 22 10 18 14 27 16 33 17 42 9 24v4l-50 16-17 5h-2l-13-36-14-32-13-28-13-25-14-24-9-15-17-25v-3l11-8 16-11 19-14z" fill="#B2B4B8"/>
<path transform="translate(775,607)" d="m0 0h5l11 42 9 41 7 42 4 34 2 25 1 23v21h-71l-4-56-5-41-7-41-9-39-6-22-1-9 42-13z" fill="#B3B5B9"/>
<path transform="translate(8,12)" d="m0 0h13l28 2 38 4 45 7 28 6 44 11 29 9 2 1-2 9-9 26-11 33-10-2-51-14-24-5-27-5-36-5-31-3-26-2-1-1v-34z" fill="#B2B4B8"/>
<path transform="translate(261,62)" d="m0 0 12 3 34 14 24 11 29 14 26 14 25 15 21 13 22 15 12 8-4 7-12 15-13 18-11 15-2 3-5-2-33-22-28-17-27-15-26-13-29-13-37-15-1-3 15-43 7-20z" fill="#B2B4B8"/>
<path transform="translate(488,186)" d="m0 0 8 6 17 14 14 12 10 9 13 12 7 7 8 7 19 19 7 8 15 16 9 11 9 10 11 14 10 13 5 8-10 7-16 11-15 11-17 12-5-5-14-18-9-11-11-13-22-24-37-37-11-9-11-10-22-18-6-5 6-7 12-16 11-15 11-14z" fill="#B2B4B8"/>
<path transform="translate(125,119)" d="m0 0h7l30 7 29 8 47 16 37 15 32 15 1 3-29 10-63 20-20 6h-2l3 11 24 72 8 28 1 3-9-3-15-7-19-8-30-11-30-9-31-8v-3l14-10 23-15 57-38h3l-10-16-11-16-16-23-11-17-13-19z" fill="#6F7277"/>
<path transform="translate(318,187)" d="m0 0 7 3 19 10 17 10 22 14 19 13 18 13 17 13 11 9 13 11 15 12-1 3-16 2-24 1-46 1-24 1-7 2 2 2-1 6v38l1 37 2 35-8-6-11-10-14-11-20-15-27-18-22-13-12-7-7-4v-1l14-3 30-10 10-3 9-3 48-15h4l-13-41-12-36-12-37z" fill="#6E7176"/>
<path transform="translate(615,465)" d="m0 0h2l16 30 12 22 15 32 16 39 16 47 1 7-6-2-24-13-23-13-26-15-22-12-7-2-1 4-15 29-8 13-10 18-13 23-7 13-3 1-4-11-11-32-15-35-14-28-12-22v-2l19 4 24 6 31 7 32 8 8 1 6-21 10-44 11-44z" fill="#6E7176"/>
<path transform="translate(696,654)" d="m0 0 2 1 11 49 5 27 4 30 4 43 1 40-5-2-48-48-7-8-13-13-8-7-6-5h-2v2h-2l-2 4-7 7-7 8-58 58-4 3h-2l-1-10-2-38-4-32-6-31-6-26v-4l4 2 24 13 22 12 42 24 9 5 4-2 12-21 13-23 12-22 13-23 7-12z" fill="#6F7277"/>
<path transform="translate(486,306)" d="m0 0 4 2 20 20 7 8 11 11 7 8 12 14 11 13 10 13 14 19 12 17 12 18 3 4v3l-18-4-64-16-31-7h-4l-4 15-14 57-8 36-1 6-6-5-14-21-12-16-11-14-12-14-9-11-27-27-2-4 17-1 84-2 17-1v-15l-3-59z" fill="#6E7176"/>
<path transform="translate(500,691)" d="m0 0 3 3 8 31 6 29 5 34 4 48v5l-1 1h-46l-1-1-1-7-2-30-5-37-6-31-7-28v-4z" fill="#B3B5B9"/>
<path transform="translate(426,539)" d="m0 0 4 2 10 15 12 20 10 18 14 28 11 26 9 25-1 2-41 13-3 1-4-10-11-28-13-28-16-29-14-22-4-5 2-4 19-13 11-8z" fill="#B2B4B8"/>
<path transform="translate(310,416)" d="m0 0 7 4 13 11 11 9 7 7 8 7 23 23 7 8 13 15 11 14 7 9v2l-19 13-17 12h-4l-14-18-9-11-7-7-7-8-6-6v-2l-4-2-13-13-8-7-11-10-11-9-5-5 8-10 12-16 7-9z" fill="#B3B5B9"/>
<path transform="translate(161,334)" d="m0 0 6 1 28 11 35 17 23 13 26 16 17 12-2 5-10 13-12 17-3 4-14-9-19-12-24-14-16-8-21-10-27-11-1-4 7-19z" fill="#B2B4B8"/>
<path transform="translate(356,301)" d="m0 0 1 2 2 1-1 2 2 1-1 6v38l1 37 2 35-8-6-11-10-14-11-20-15-27-18-22-13-12-7-7-4v-1l14-3 30-10 10-3 9-3 48-15h4z" fill="#6F7277"/>
<path transform="translate(4,300)" d="m0 0 29 3 28 4 36 7 25 6 23 7-2 9-12 36-7-1-30-8-33-7-57-8-1-1z" fill="#B3B5B9"/>
<path transform="translate(472,556)" d="m0 0 19 4 24 6 31 7 32 8 9 1v2l2 1h-4l-1 4-15 29-8 13-10 18-13 23-7 13-3 1-4-11-11-32-15-35-14-28-12-22z" fill="#6F7277"/>
<path transform="translate(269,756)" d="m0 0 5 1 5 19 4 19v5l-52 13-55 13h-5l-2-7-8-34v-2l64-16z" fill="#84878A"/>
<path transform="translate(240,687)" d="m0 0 3 1 8 16 9 17 2 6-22 12-22 11-22 12-34 17-4-1-12-24-6-11 1-4 18-10 16-8 35-18 22-12z" fill="#84878A"/>
<path transform="translate(64,552)" d="m0 0 8 1 25 9 10 4-3 9-11 29-18 48-7 18-1 5-5-1-23-9-14-5-1-2 6-17 18-47 11-29 4-12z" fill="#84878A"/>
<path transform="translate(134,582)" d="m0 0 9 5 27 18-1 5-16 24-10 14-10 15-16 23-9 13-3 3-18-13-17-11-1-2 10-16 18-26 24-34 11-16z" fill="#84878A"/>
<path transform="translate(194,628)" d="m0 0 6 5 9 11 9 9 5 7-2 4-14 13-8 7-14 12-16 15-11 9-14 12-7 5-8-8-9-11-12-13 1-2h2l2-4 14-13 8-7 10-9 11-9 12-11 11-9 9-9z" fill="#84878A"/>
<path transform="translate(174,830)" d="m0 0h54l58 1 1 5v38l-1 1h-90l-24-1v-43z" fill="#84878A"/>
<path transform="translate(4,103)" d="m0 0 34 2 43 5 32 5-2 4-8 6-69 46-13 9-5 3-6-1-6-5-1-2v-64z" fill="#707378"/>
<path transform="translate(151,397)" d="m0 0 7 1 7 3v2l12 3 1 4-2 5h-2v5h-2l-1 7h-2l-3 11-7 17h-2l-3 11-6 14-8 20h-2l-1 7-9 21h-2l-1 6-4 9-3 8-1 3-6-1-10-4v-2l-10-2-1-1v-6h2l1-5 3-10 7-17 5-12 7-16 5-11 13-31 6-14h2l1-7 1-2h2l1-7 1-2h2z" fill="#2B282A"/>
<path transform="translate(429,685)" d="m0 0h5l2 5 4 13v6h2v4l-13 5-12 3-16 6-45 15-12 2v2l-7 2-18 6h-6v2h-7v2l-11 3-4 1-2-3-3-9v-5h-2l-2-7v-5l13-2v-2l12-2v-2l12-2v-2l12-4 7-2 17-5h4v-2l8-1v-2l7-2h5v-2l20-6 9-3 14-4z" fill="#2A2729"/>
<path transform="translate(102,381)" d="m0 0h7l19 6 1 1-1 10-4 10-4 16-10 32h-2v7l-11 36h-2v7l-2 6h-2l-1 6-2 6-2 10-3 6-11-2-14-4-1-6 3-14 15-51 9-28 9-30 7-22z" fill="#2C292B"/>
<path transform="translate(446,735)" d="m0 0 3 1 3 11v10h2v6l-2 2-44 9-9 1-1 1-8 1-1 1-8 1-6 2-13 2-5 2-14 2-5 2-14 2-10 3-10 1-6 2-4-17-1-13 32-7 17-3 1-1 9-1 5-2 79-17z" fill="#2A2729"/>
<path transform="translate(51,369)" d="m0 0 10 1 19 4-2 14-3 16h-2v11l-1 5h-2l-1 16-2 10h-2l-1 15-5 28h-2l-2 18-2 6-1 8-3 9h-9v-2l-15-1v-2h-3l1-9 3-21 11-58 5-26h2l1-16 5-25z" fill="#2B282A"/>
<path transform="translate(198,419)" d="m0 0h4v2l9 3 4 2v2l9 3v3h-2l-1 5h-2l-3 9h-2l-3 9h-2l-3 9h-2l-2 7h-2l-3 9-1 2h-2l-1 6-3 1-1 6-3 5h-2l-1 6-3 1-1 6-2 3h-2l-3 9-5 9h-2l-2 8-3 1-3 9h-2l-1 5h-2l-2 7-5 4-9-4v-2l-5-1-4-3-5-2-1-3 6-11h2l1-6 2-3h2l1-6 6-11 7-12 3-3 4-10 5-8 2-1 2-6h2v-5l6-10 10-18 3-1 1-5 1-2h2l2-6 2-5h2l2-5z" fill="#2A2729"/>
<path transform="translate(452,785)" d="m0 0h6l2 24v7l-52 5-27 2-1 1-57 6h-19l-1-1-2-9-1-13-1-1v-5l25-2h17v-2l27-2 1-1 30-3h14v-2l31-3z" fill="#2A2729"/>
<path transform="translate(322,511)" d="m0 0 4 1 9 10 6 7v2h2v2l-11 9-9 9-8 7-11 10h-2l-2 4-20 18h-2l-2 4-7 6-5 5-7 6h-2l-2 4-8 7-5 5-5 4-6 6h-6l-7-8-10-10 2-4 3-1 3-3 1-3 8-7 9-9 5-4 5-3 1-3 6-5h2l2-4h2v-2l4-3h2v-2l4-1 2-4 6-5h2v-2l3-2 1-3 8-6 8-8h2v-2l4-1 2-4 14-13h2v-2z" fill="#282527"/>
<path transform="translate(242,445)" d="m0 0 5 1 1 3h3v2h3v2h3v2h3v2l5 1 2 1-1 5h-2l-1 4-4 6h-2l-1 4h-2v3h-2l-1 4h-2v3h-2l-1 4-2 3h-2l-2 5-1 2h-2v3h-2l-1 4h-2v3h-2l-1 4h-2v3h-2v3h-2l-1 4h-2v3h-2l-1 4h-2v3l-2 1-1 3h-2v3h-2l-1 5-4 3-3 7-6 8-2 1-2 5-5 5-1 3h-2v3l-2 1-1 3h-2v4l-4-1v-2h-3v-2l-4-1v-2h-3v-2h-3l-5-5-2-1 2-7h2l1-5 6-8h2l1-5 4-2 2-7 9-12 4-5 1-3h2l2-5 11-15 4-4 1-4 3-1 4-8 2-1 5-9 3-2 4-7h2l2-5 2-4h2l2-5 2-4h2z" fill="#292628"/>
<path transform="translate(355,550)" d="m0 0 4 1 7 9v2h2l6 8-1 4-11 9-9 6h-2l-1 3h-3l-1 3h-3v2l-14 10h-2v2h-3l-1 3h-3l-1 3h-3v2l-4 1v2l-10 7h-2v2h-3l-1 3h-3l-1 3h-3v2l-3 1-1 2h-3l-1 3h-3l-1 3h-3v2h-3l-1 3h-3l-1 3h-3l-1 3h-3v2l-3 1-1 2-5 3h-5v-2l-3-1-1-4h-2v-3l-3-1v-3l-3-1v-3l-4-2v-3l7-4h3l2-4 5-2 5-6 10-7h2v-2l8-5 3-1 5-5h3v-2l3-1 7-7 4-1 3-3h2l1-3h3v-2l4-1v-2h3l1-3 3-1 1-2h3l1-3 3-2h3l1-3h3l1-3h3v-2h3l1-3 4-3h3l1-3h3v-2z" fill="#282527"/>
<path transform="translate(283,476)" d="m0 0 5 1 2 4 5 2 3 3v2l6 3v2h2l-1 5-8 8-5 6h-2l-2 5-4 2-2 4-4 5h-2l-2 5-7 7-5 6h-2l-2 5-4 2-2 5-5 4-4 6-5 4-3 5-3 3h-2l-1 4-5 5-4 5-3 3-4 5-5 5h-2l-2 5-3 2-5-5-6-5v-2l-5-2-4-4 1-5h2v-2l9-9 6-9 8-10 4-4h2l2-4 7-6 3-5 9-10 2-1 1-3h2l2-4 5-5 4-5 4-3 3-5 3-2 3-5 5-5 7-8z" fill="#282527"/>
<path transform="translate(411,638)" d="m0 0 4 1 5 13 4 10v2l-9 4-5 3-8 3-10 5-10 4-5 3-7 3-10 4-9 3v2l-9 3-7 4-13 5-9 3v2l-7 3h-4v2l-16 6-5 3-3-1-5-12-3-8v-2h-2l-1-5 12-3v-2l11-3v-2h5v-2l8-2v-2h5v-2l11-4h2v-2l11-3v-2l7-3h4v-2h5v-2l8-4h5v-2l9-2v-2l11-4 10-5 8-3z" fill="#282527"/>
<path transform="translate(384,593)" d="m0 0h5l2 6h2l5 10 4 6v3l-12 6h-2v2l-7 2v2l-7 2v2l-5 1v2l-5 1v2l-5 1v2l-5 1v2l-7 2v2l-5 1v2l-5 1v2l-6 3-6 2v2l-5 1v2l-7 2v2l-5 1v2l-7 2-1 3-6 1v2l-5 1v2l-9 3v2l-5 1v2l-9 4h-2v-2h-2l-1-5h-2l-2-7h-2l-2-7-3-1 1-4 8-2v-2l5-1 1-3 6-2 4-4h4l1-3 9-4h2l1-3 9-4h2l1-3 6-3h3l1-3 6-1 1-3h4v-2l7-2 1-3 6-1v-2l5-1v-2l4-2h3v-2l5-1v-2l7-2v-2l7-2v-2l5-1v-2l9-3z" fill="#272426"/>
<path transform="translate(303,838)" d="m0 0h159v28h-158l-1-10z" fill="#252224"/>
<path transform="translate(13,186)" d="m0 0 4 2 10 16 14 20 32 48 5 8v3l-19-2-42-5-14-2v-57l1-23 5-5z" fill="#707378"/>
<path transform="translate(479,494)" d="m0 0 9 1 6 1v2l18 2 24 5 1 5-1 5h-2l-1 13-3 11-1 1-3 16-3 8h-5l-8-3-16-3-1-1-12-2-1-1-12-2-2-1 1-10 5-20 1-1 2-12 1-1 2-12z" fill="#282527"/>
<path transform="translate(494,433)" d="m0 0 11 1 4 1v2h8l30 7v2h4v7l-7 28-1 1-1 8-2 7h-2l-1 5-9-1-16-3-1-1-17-3-6-2-7-3 1-10 3-9 2-11 1-1 2-12 1-1 2-11z" fill="#292628"/>
<path transform="translate(307,185)" d="m0 0h7l4 9 12 37 1 9-8 4-35 11h-3v2l-3 1h-7l-9-29-2-9h-2l-1-9h-2v-8l1-2 46-15z" fill="#292628"/>
<path transform="translate(251,204)" d="m0 0h4l2 5 4 16 10 31v4l-4 1v2h-7v2l-16 4-26 9-3-1-3-9-4-15-3-7v-5h-2l-6-18v-2z" fill="#292628"/>
<path transform="translate(272,262)" d="m0 0 3 3 12 36 2 13h2l-1 6h-2v2l-25 8-12 3-7 2h-3l-1 3-5-1-2-2-1-10h-2l-9-29-2-7v-7l7-3 22-6 18-7h2v-2z" fill="#292628"/>
<path transform="translate(100,206)" d="m0 0 4 1 7 10 5 5 20 30-1 3-10 5-9 6-5 5-5 1v2h-3v2l-3 2h-3v2l-6 2v2l-6 1v-2h-2v-3h-2v-3h-2l-1-5-3-1v-3l-3-1-1-5-3-1-1-5h-2v-3h-2v-3h-2v-3h-2l-1-5-4-2v-4l14-8 21-14 2-3 7-3z" fill="#282527"/>
<path transform="translate(556,448)" d="m0 0 15 2 5 2 16 3v2l16 2 4 2-2 13-4 16-2 4-3 16-2 7h-9l-8-3-20-4-17-4-3-2v-6l1-1 2-12 6-24 1-1 2-11z" fill="#282528"/>
<path transform="translate(475,301)" d="m0 0h7l1 2v58l-3 1-32 1h-22l-1-2-1-32-1-23 4-2 37-2z" fill="#292628"/>
<path transform="translate(476,365)" d="m0 0h9l1 10 2 49-30 1h-29l-2-6v-52l8-1z" fill="#272426"/>
<path transform="translate(415,304)" d="m0 0 3 1 3 32 1 24-1 2-4 2h-53l-2-4-1-55 11-1z" fill="#282527"/>
<path transform="translate(539,509)" d="m0 0 14 1 8 2v2l13 1 4 2 13 2 6 2-1 11h-2v8l-2 5-1 8h-2v8l-3 11-2 6h-7l-4-1v-2h-9l-4-1v-2l-16-2-5-2-12-2-1-3 3-11 3-9 1-8 2-5 1-7 1-1z" fill="#282528"/>
<path transform="translate(328,246)" d="m0 0h5l3 10h2l4 16 2 9h2l3 11 2 4v5l-8 3h-6v2l-15 5-7 2-17 5h-3v-3h-2l-3-9v-7h-2l-8-24-2-13 29-9z" fill="#272527"/>
<path transform="translate(557,645)" d="m0 0 6 2 10 5 3 1v2l5 1v2l6 2 9 5 10 4 3 2-3 9h-2l-3 9h-2l-2 8-3 1-6 15-2 3h-2l-2 6-5 1v-2l-5-1v-2l-8-2-1-3-9-3-2-1v-2l-9-3-2-1v-2l-9-3v-2h-2l-1-4 5-6 1-3h2l2-7h2l2-7h2l3-9h2l2-7h2l2-7z" fill="#272426"/>
<path transform="translate(117,120)" d="m0 0 5 1v2h2v3h2l1 3 4 4v3l3 1 5 8v3h2l2 5 5 5 2 4v3h2v3l-12 7-5 4h-2l-2 4-7 3-12 8-3 1-2 4-5-1-2-4-2-1-4-8-10-15-5-5-5-7-2-8 3-3 9-5 18-12 2-3 4-1 3-4z" fill="#272426"/>
<path transform="translate(151,172)" d="m0 0 5 1 5 5 4 5 3 7 7 8 9 14 2 7-2 3h-3v2l-5 1v2h-3v2h-3v2h-3v2h-3v2h-3v2h-3v2h-3v2h-3v2h-3v2h-3v2l-5 1v2l-4-1-2-4-4-2-4-9-7-8-1-5h-2l-5-9-5-7 1-4 14-9 1-2 5-2 5-5 6-4 7-3z" fill="#272426"/>
<path transform="translate(679,809)" d="m0 0 6 4 7 7 7 8 12 12 5 6 6 4-1 5-8 7-22 22h-20v-2l-4-1-3-5-20-20-5-4 2-4 22-22h2l1-3h2l2-4 7-6z" fill="#262325"/>
<path transform="translate(635,766)" d="m0 0h2l7 8 9 9 8 7 13 13 3 4-1 4-21 21h-2l-2 4h-2l-2 4-7 5-1 2h-5l-7-8-5-3-4-6-11-11-6-4-4-5v-5l7-6 20-20 3-5 5-4z" fill="#262426"/>
<path transform="translate(587,590)" d="m0 0 6 1v2l5 1v2l6 2 9 5 7 3v2l5 1 2 1v2l10 3 1 1-1 8-3 5-2 5h-2l-2 5-8 15-1 3h-2l-2 7h-2l-2 4-5-2-17-9-7-3-2-1v-2l-7-2v-2l-9-3v-2h-3l1-7h2l1-5h2l3-9h2l1-5 1-2h2l3-9h2l1-6h2l1-5z" fill="#262325"/>
<path transform="translate(642,620)" d="m0 0h3v2l7 2v2l5 1 2 1v2l10 3 1 3 5 2 11 5v2l6 2 1 1v5h-2l-1 5h-2l-3 9h-2l-2 7h-2l-3 9h-2l-3 9h-2l-2 5-4 1-22-12-7-3-2-1v-2l-5-2-11-6v-5l2-4h2l2-7h2l3-9h2l2-7h2l3-9 1-2h2z" fill="#262325"/>
<path transform="translate(65,155)" d="m0 0 5 1 20 30 9 13-1 4-7 5h-2v2l-7 4-12 8-17 11-3-1-3-3v-3h-2v-3h-2l-2-5-2-1-2-5-2-1-2-5-2-1v-3h-2v-3h-2v-3h-2l-2-3v-3h-2l-1-5 4-4h3l1-3 3-2h4l2-4 6-4h4l2-4 10-7z" fill="#262325"/>
<path transform="translate(612,676)" d="m0 0 6 2 8 4 7 3v2l8 2 6 5 13 7 4 1v3h-2l-1 5h-2l-1 5-1 2h-2l-1 5h-2l-2 7h-2l-3 9-1 2h-2l-3 9h-2l-2 4-6-1v-2l-7-2v-2l-5-2-9-4v-2l-5-2-11-5v-2l-5-1v-2l-4-1 2-3h2l3-9h2l1-4 1-3h2l3-9h2l3-9h2l3-9z" fill="#262325"/>
<path transform="translate(413,368)" d="m0 0h8l1 1 1 27v29l-30 2-22 1-4 1-2-2-2-29v-29z" fill="#262426"/>
<path transform="translate(591,812)" d="m0 0 5 1 12 12 6 5 3 5 16 16-2 5-20 20-4 1v2l-5 5h-20v-2l-4-2-1-3-3-1v-2l-4-2-20-20 1-3 4-1 2-4 4-4 3-1 16-16 5-6z" fill="#272426"/>
<path transform="translate(4,363)" d="m0 0 22 2 2 1v17l-9 105-1 11h-2v11l-1 12-1 2h-11l-1-1 1-159z" fill="#2F2D2F"/>
<path transform="translate(4,539)" d="m0 0 29 3 2 1-8 66-6 49-10-1-8-2v-115z" fill="#86898C"/>
<path transform="translate(743,863)" d="m0 0h70l1 7v14h-71z" fill="#B3B5B9"/>
<path transform="translate(478,858)" d="m0 0h44l3 1v25h-47z" fill="#B3B5B9"/>
<path transform="translate(635,855)" d="m0 0 4 1 7 8 5 5 8 7 5 7v1h-56l2-4 14-14 6-7z" fill="#262325"/>
<path transform="translate(86,705)" d="m0 0 4 1 11 11 8 7 7 8 7 9-5 5-6 4-4-1-14-15-17-17 8-10z" fill="#B3B5B9"/>
<path transform="translate(36,678)" d="m0 0 7 1 17 8 21 13 1 2-8 12-4-1-23-13-14-7 1-8z" fill="#B3B5B9"/>
<path transform="translate(125,747)" d="m0 0 4 2 8 14 8 16 4 10-1 4-12 4-3-1-6-15-10-19-4-7z" fill="#B3B5B9"/>
<path transform="translate(148,798)" d="m0 0 4 1 4 16 3 20v13h-16l-4-29-3-16 9-4z" fill="#B3B5B9"/>
<path transform="translate(142,854)" d="m0 0h17v12l-1 18h-17z" fill="#B3B5B9"/>
<path transform="translate(4,668)" d="m0 0 21 5 5 2-1 9-3 7-12-3-10-3-1-1v-15z" fill="#B2B4B8"/>
<path transform="translate(720,858)" d="m0 0h2v26h-26l1-2h2l2-4 14-14z" fill="#6E7176"/>
<path transform="translate(68,152)" d="m0 0 3 3 20 30 9 13v5l-3 4 3-3 4 1-1 2-4 1-4 3-4 1-5 5-23 15-8 4v-2l-3 1-2-3 5-1 27-18 4-3h3v-2l9-6-1-4-28-42-8 1 4-4z" fill="#C0C2C4"/>
<path transform="translate(551,860)" d="m0 0 4 2 12 11 9 9v2h-25z" fill="#76797E"/>
<path transform="translate(325,242)" d="m0 0 2 1-3 2 9-1 4 9-1 3-3-10-11 3-24 8-18 5h-2l1 7-2-3v-6l1-2 7-1v-2l38-12z" fill="#DCDCDE"/>
<path transform="translate(148,169)" d="m0 0 2 2 5-2 3 4-1 2-2-2-5 1-7 5-7 3-6 4-4 4h-3l-1 3-14 9-2 3-1-4 3-1 1-5 15-10 8-4 5-5z" fill="#C6C8CA"/>
<path transform="translate(303,878)" d="m0 0 21 1 34 4v1h-55z" fill="#3B393C"/>
<path transform="translate(264,265)" d="m0 0 4 1-14 6-24 7-10 3-2 4-1-5 6-6 24-8 4 1-17 6 12-3z" fill="#818488"/>
<path transform="translate(125,119)" d="m0 0h7l30 7 29 8 15 5-4 1-19-6-14-4-29-5h-5l-6-3-2 1z" fill="#939699"/>
<path transform="translate(259,218)" d="m0 0 1 3 5 2 8 25v3h-2l1 3v7l-5 1 4-2-11-35z" fill="#C2C3C5"/>
<path transform="translate(679,809)" d="m0 0 6 4 7 7h-3l-7-7-4 2-38 38v-4l23-23h2l1-3h2l2-4 7-6z" fill="#6F7074"/>
<path transform="translate(331,244)" d="m0 0 3 1 3 8-1 3-3-10-11 3-24 8-18 5h-2l1 7-2-3v-6l1-1 15-3 9-3 25-8z" fill="#8C8E93"/>
<path transform="translate(208,266)" d="m0 0 2 3 11 33 4 13-1 6-2-4-1-9h-2l-1-7v-3h-2l-3-12-2-2-3-14z" fill="#909396"/>
<path transform="translate(127,183)" d="m0 0 2 1-2 3 2 1-3 2h-3l-1 3-14 9-2 3-1-4 3-1 1-5 15-10z" fill="#C7C8CA"/>
<path transform="translate(68,152)" d="m0 0 3 3 20 30 9 13v5h-3l1-4-11-16-18-27-8 1 4-4z" fill="#8A8C91"/>
<path transform="translate(412,366)" d="m0 0h11v30h-1l-1-27h-33v-1z" fill="#929599"/>
<path transform="translate(720,858)" d="m0 0h2v21h-1l-1-16-8 7-10 10-2-1 15-15z" fill="#8C8F93"/>
<path transform="translate(635,855)" d="m0 0 4 1 1 2-4-1-27 27v-3l15-15 6-7z" fill="#5E5E61"/>
<path transform="translate(674,803)" d="m0 0 5 4-1 3-4-5zm2 7m-1 1m-1 1m-1 1m-1 1m-1 1m-1 1m-1 1m-1 1m-1 1m-1 1m-1 1m-1 1m-1 1m-1 1m-1 1m-1 1m-1 1m-1 1m-1 1m-1 1m-1 1m-2 1 2 1-2 1zm-1 2m-1 1m-2 1 2 1-2 1zm-1 2m-1 1m-2 1 2 1-7 7-4 1-1-2h4l2-4z" fill="#CFD1D2"/>
<path transform="translate(247,267)" d="m0 0 4 1-17 6-3 3-10 2v-3z" fill="#BABCBE"/>
<path transform="translate(421,314)" d="m0 0 2 3 1 14v15l-2-4-2-24z" fill="#FDFDFD"/>
<path transform="translate(238,273)" d="m0 0 4 1h-2v2l-20 6-2 4-1-5 2-2 12-3z" fill="#8E9095"/>
<path transform="translate(125,119)" d="m0 0h7l9 2-1 4h-5l-6-3-2 1z" fill="#8E9194"/>
<path transform="translate(356,301)" d="m0 0 1 2 2 1-1 2 2 1-1 6-1 16h-1l-1-18-1-6-3-1h4z" fill="#B0B2B6"/>
<path transform="translate(119,188)" d="m0 0 2 1-7 6v3l-6 4-2 3-1-4 3-1 1-5z" fill="#A9ABAE"/>
<path transform="translate(294,255)" d="m0 0h4v2l-18 5h-2l1 7-2-3v-6l1-1 15-3z" fill="#909296"/>
<path transform="translate(68,152)" d="m0 0 3 3 10 15h-3l-9-14-8 1 4-4z" fill="#8E9195"/>
<path transform="translate(255,266)" d="m0 0m-4 1h4v2l-11 4-11 2 1-2z" fill="#FDFDFD"/>
<path transform="translate(116,477)" d="m0 0 1 2-4 10-7 16-1-4 7-16z" fill="#8A8D91"/>
<path transform="translate(325,242)" d="m0 0 2 1-4 4-5 2h-11l3-2z" fill="#C2C3C6"/>
<path transform="translate(89,112)" d="m0 0 13 1 11 2-1 2h-8l-6-2-8-1z" fill="#999B9F"/>
<path transform="translate(219,299)" d="m0 0 2 3 4 13-1 6-2-4-1-9h-2l-1-5z" fill="#96989C"/>
<path transform="translate(171,881)" d="m0 0 16 1 1 2h-17z" fill="#8B8D92"/>
<path transform="translate(516,502)" d="m0 0 10 1 10 2 1 5-1 5h-1v-8l-10-2-9-2z" fill="#8E9095"/>
<path transform="translate(260,263)" d="m0 0h5l-1 3-9 2-4-2 9-1z" fill="#D7D8D9"/>
<path transform="translate(4,181)" d="m0 0 5 3-2 4-3-1-1-5z" fill="#8D9094"/>
</svg>
